<svg id="visual" viewBox="0 0 900 600" width="900" height="600" xmlns="http://www.w3.org/2000/svg" xmlns:xlink="http://www.w3.org/1999/xlink" version="1.1"><g stroke-width="1" stroke-linejoin="bevel"><path d="M401 295L306 386L378 400Z" fill="#19435d" stroke="#19435d"></path><path d="M401 295L289 267L306 386Z" fill="#1d4e6b" stroke="#1d4e6b"></path><path d="M289 267L239 324L306 386Z" fill="#112e42" stroke="#112e42"></path><path d="M326 497L405 471L378 400Z" fill="#112e42" stroke="#112e42"></path><path d="M518 402L514 293L401 295Z" fill="#1d4e6b" stroke="#1d4e6b"></path><path d="M401 295L308 199L289 267Z" fill="#0c2435" stroke="#0c2435"></path><path d="M289 267L184 192L239 324Z" fill="#1d4e6b" stroke="#1d4e6b"></path><path d="M211 474L326 497L306 386Z" fill="#00101c" stroke="#00101c"></path><path d="M306 386L326 497L378 400Z" fill="#1d4e6b" stroke="#1d4e6b"></path><path d="M518 402L401 295L378 400Z" fill="#205a7a" stroke="#205a7a"></path><path d="M401 295L375 172L308 199Z" fill="#0c2435" stroke="#0c2435"></path><path d="M510 238L375 172L401 295Z" fill="#277297" stroke="#277297"></path><path d="M405 471L518 402L378 400Z" fill="#00101c" stroke="#00101c"></path><path d="M239 324L192 419L306 386Z" fill="#19435d" stroke="#19435d"></path><path d="M514 293L510 238L401 295Z" fill="#277297" stroke="#277297"></path><path d="M192 419L211 474L306 386Z" fill="#15384f" stroke="#15384f"></path><path d="M266 127L184 192L308 199Z" fill="#081a28" stroke="#081a28"></path><path d="M308 199L184 192L289 267Z" fill="#0c2435" stroke="#0c2435"></path><path d="M239 324L132 286L192 419Z" fill="#205a7a" stroke="#205a7a"></path><path d="M184 192L132 286L239 324Z" fill="#081a28" stroke="#081a28"></path><path d="M192 419L102 475L211 474Z" fill="#19435d" stroke="#19435d"></path><path d="M405 471L515 500L518 402Z" fill="#277297" stroke="#277297"></path><path d="M401 600L515 500L405 471Z" fill="#205a7a" stroke="#205a7a"></path><path d="M375 172L266 127L308 199Z" fill="#246688" stroke="#246688"></path><path d="M515 500L585 382L518 402Z" fill="#297ea6" stroke="#297ea6"></path><path d="M518 402L585 382L514 293Z" fill="#1d4e6b" stroke="#1d4e6b"></path><path d="M514 293L598 304L510 238Z" fill="#297ea6" stroke="#297ea6"></path><path d="M637 127L468 130L510 238Z" fill="#19435d" stroke="#19435d"></path><path d="M510 238L468 130L375 172Z" fill="#297ea6" stroke="#297ea6"></path><path d="M375 172L371 61L266 127Z" fill="#00101c" stroke="#00101c"></path><path d="M585 382L598 304L514 293Z" fill="#19435d" stroke="#19435d"></path><path d="M289 600L401 600L326 497Z" fill="#081a28" stroke="#081a28"></path><path d="M326 497L401 600L405 471Z" fill="#205a7a" stroke="#205a7a"></path><path d="M211 474L289 600L326 497Z" fill="#15384f" stroke="#15384f"></path><path d="M132 286L97 429L192 419Z" fill="#277297" stroke="#277297"></path><path d="M211 474L175 600L289 600Z" fill="#1d4e6b" stroke="#1d4e6b"></path><path d="M184 192L105 218L132 286Z" fill="#297ea6" stroke="#297ea6"></path><path d="M132 286L0 422L97 429Z" fill="#00101c" stroke="#00101c"></path><path d="M84 127L105 218L184 192Z" fill="#0c2435" stroke="#0c2435"></path><path d="M468 130L371 61L375 172Z" fill="#277297" stroke="#277297"></path><path d="M266 127L190 79L184 192Z" fill="#00101c" stroke="#00101c"></path><path d="M97 429L102 475L192 419Z" fill="#277297" stroke="#277297"></path><path d="M598 304L633 217L510 238Z" fill="#205a7a" stroke="#205a7a"></path><path d="M393 0L322 0L371 61Z" fill="#0c2435" stroke="#0c2435"></path><path d="M666 315L633 217L598 304Z" fill="#297ea6" stroke="#297ea6"></path><path d="M322 0L190 79L266 127Z" fill="#15384f" stroke="#15384f"></path><path d="M532 600L591 538L515 500Z" fill="#0c2435" stroke="#0c2435"></path><path d="M515 500L591 538L585 382Z" fill="#081a28" stroke="#081a28"></path><path d="M585 382L666 315L598 304Z" fill="#246688" stroke="#246688"></path><path d="M715 388L666 315L585 382Z" fill="#0c2435" stroke="#0c2435"></path><path d="M102 475L175 600L211 474Z" fill="#297ea6" stroke="#297ea6"></path><path d="M401 600L532 600L515 500Z" fill="#246688" stroke="#246688"></path><path d="M102 475L135 600L175 600Z" fill="#277297" stroke="#277297"></path><path d="M393 0L371 61L468 130Z" fill="#081a28" stroke="#081a28"></path><path d="M371 61L322 0L266 127Z" fill="#19435d" stroke="#19435d"></path><path d="M519 0L393 0L468 130Z" fill="#277297" stroke="#277297"></path><path d="M190 79L84 127L184 192Z" fill="#081a28" stroke="#081a28"></path><path d="M105 218L0 260L132 286Z" fill="#00101c" stroke="#00101c"></path><path d="M103 0L84 127L190 79Z" fill="#19435d" stroke="#19435d"></path><path d="M532 600L578 600L591 538Z" fill="#246688" stroke="#246688"></path><path d="M701 507L715 388L585 382Z" fill="#081a28" stroke="#081a28"></path><path d="M666 315L675 192L633 217Z" fill="#112e42" stroke="#112e42"></path><path d="M633 217L637 127L510 238Z" fill="#1d4e6b" stroke="#1d4e6b"></path><path d="M675 192L637 127L633 217Z" fill="#081a28" stroke="#081a28"></path><path d="M0 172L0 260L105 218Z" fill="#00101c" stroke="#00101c"></path><path d="M97 429L0 422L102 475Z" fill="#081a28" stroke="#081a28"></path><path d="M102 475L0 516L135 600Z" fill="#277297" stroke="#277297"></path><path d="M0 260L0 422L132 286Z" fill="#1d4e6b" stroke="#1d4e6b"></path><path d="M701 507L585 382L591 538Z" fill="#1d4e6b" stroke="#1d4e6b"></path><path d="M666 315L770 295L675 192Z" fill="#00101c" stroke="#00101c"></path><path d="M637 127L519 0L468 130Z" fill="#19435d" stroke="#19435d"></path><path d="M322 0L180 0L190 79Z" fill="#0c2435" stroke="#0c2435"></path><path d="M737 600L701 507L591 538Z" fill="#0c2435" stroke="#0c2435"></path><path d="M84 127L0 172L105 218Z" fill="#15384f" stroke="#15384f"></path><path d="M0 111L0 172L84 127Z" fill="#297ea6" stroke="#297ea6"></path><path d="M0 422L0 516L102 475Z" fill="#00101c" stroke="#00101c"></path><path d="M713 69L590 0L637 127Z" fill="#112e42" stroke="#112e42"></path><path d="M637 127L590 0L519 0Z" fill="#112e42" stroke="#112e42"></path><path d="M790 396L770 295L715 388Z" fill="#081a28" stroke="#081a28"></path><path d="M715 388L770 295L666 315Z" fill="#19435d" stroke="#19435d"></path><path d="M675 192L713 69L637 127Z" fill="#15384f" stroke="#15384f"></path><path d="M103 0L0 111L84 127Z" fill="#246688" stroke="#246688"></path><path d="M180 0L103 0L190 79Z" fill="#205a7a" stroke="#205a7a"></path><path d="M0 516L0 600L135 600Z" fill="#0c2435" stroke="#0c2435"></path><path d="M701 507L790 396L715 388Z" fill="#15384f" stroke="#15384f"></path><path d="M824 136L713 69L675 192Z" fill="#0c2435" stroke="#0c2435"></path><path d="M900 296L802 228L770 295Z" fill="#205a7a" stroke="#205a7a"></path><path d="M770 295L802 228L675 192Z" fill="#1d4e6b" stroke="#1d4e6b"></path><path d="M578 600L737 600L591 538Z" fill="#1d4e6b" stroke="#1d4e6b"></path><path d="M701 507L821 460L790 396Z" fill="#081a28" stroke="#081a28"></path><path d="M776 600L821 460L701 507Z" fill="#0c2435" stroke="#0c2435"></path><path d="M790 396L900 371L770 295Z" fill="#19435d" stroke="#19435d"></path><path d="M774 0L699 0L713 69Z" fill="#19435d" stroke="#19435d"></path><path d="M713 69L699 0L590 0Z" fill="#246688" stroke="#246688"></path><path d="M103 0L0 0L0 111Z" fill="#277297" stroke="#277297"></path><path d="M737 600L776 600L701 507Z" fill="#277297" stroke="#277297"></path><path d="M802 228L824 136L675 192Z" fill="#277297" stroke="#277297"></path><path d="M900 186L824 136L802 228Z" fill="#0c2435" stroke="#0c2435"></path><path d="M824 136L774 0L713 69Z" fill="#00101c" stroke="#00101c"></path><path d="M900 508L900 371L821 460Z" fill="#19435d" stroke="#19435d"></path><path d="M821 460L900 371L790 396Z" fill="#0c2435" stroke="#0c2435"></path><path d="M900 371L900 296L770 295Z" fill="#1d4e6b" stroke="#1d4e6b"></path><path d="M824 136L900 0L774 0Z" fill="#0c2435" stroke="#0c2435"></path><path d="M900 296L900 186L802 228Z" fill="#297ea6" stroke="#297ea6"></path><path d="M776 600L900 508L821 460Z" fill="#205a7a" stroke="#205a7a"></path><path d="M900 186L900 119L824 136Z" fill="#15384f" stroke="#15384f"></path><path d="M776 600L900 600L900 508Z" fill="#1d4e6b" stroke="#1d4e6b"></path><path d="M900 119L900 0L824 136Z" fill="#205a7a" stroke="#205a7a"></path></g></svg>